<svg xmlns="http://www.w3.org/2000/svg" viewBox="0 0 324.51 75.1"><defs><style>.cls-1{fill:#1d1d1b;}</style></defs><title>Ресурс 1</title><g id="Слой_2" data-name="Слой 2"><g id="Слой_1-2" data-name="Слой 1"><path class="cls-1" d="M4.88,24.35a11,11,0,0,0,8.94,4.12c3.33,0,5.6-1.48,5.6-3.89,0-2.92-3.24-3.8-8.43-5.14C4.84,17.82,1.6,15,1.6,10c0-5.6,4.53-10,12.31-10,4.81,0,9.4,1.62,12.27,5L21.69,9.16A10.75,10.75,0,0,0,13.63,5.6c-3.52,0-5,1.48-5,3.52,0,2.22,2,3.42,6.39,4.58,8.47,2.22,11.34,5,11.34,10.05,0,6.71-5.83,10.37-12.73,10.37-6.57,0-11-2.23-13.28-5.19Z"/><path class="cls-1" d="M32.56,14.21H28.77V10.14h.74c4.26,0,4.67-2.83,5.37-6.67h3.93v6.67h4.91v4.07H38.81V26.38c0,1.86.51,2.87,2.46,2.87a5.47,5.47,0,0,0,2.22-.46L44,33.24a12,12,0,0,1-4.72.88c-5.28,0-6.67-2.92-6.67-6.9Z"/><path class="cls-1" d="M61.54,33.37a11.66,11.66,0,0,1-.7-3.28c-1,2.27-3.24,4-6.8,4-4.77,0-7.55-3.11-7.55-7.41,0-4.77,3.57-6.67,8.85-7.45l5.13-.79v-.88c0-2.73-1.48-3.33-3.56-3.33a9,9,0,0,0-6.76,3l-3-4.17C49,11.2,52.6,9.44,57.7,9.44c6.48,0,9.12,2.78,9.12,8.61v8.71c0,3.51.09,4.72.87,6.61ZM60.47,22.45l-4,.74c-2.78.51-3.94,1.48-3.94,3.29a3,3,0,0,0,3.15,3.15c2.64,0,4.81-2.18,4.81-5.65Z"/><path class="cls-1" d="M73.62,14.21h-3.8V10.14h.74c4.26,0,4.68-2.83,5.37-6.67h3.94v6.67h4.9v4.07h-4.9V26.38c0,1.86.51,2.87,2.45,2.87a5.43,5.43,0,0,0,2.22-.46L85,33.24a12.07,12.07,0,0,1-4.73.88c-5.27,0-6.66-2.92-6.66-6.9Z"/><path class="cls-1" d="M88.34,10.14h6.29V23.38c0,3.47,1.21,5.18,3.66,5.18,3,0,4.67-2.36,4.67-6.85V10.14h6.3V33.37h-5.92V29.44c-1.21,2.64-3.15,4.49-7.13,4.49-5.33,0-7.87-3.24-7.87-9.07Z"/><path class="cls-1" d="M116,26.38a9.93,9.93,0,0,0,7,3.11c1.66,0,3.42-.65,3.42-2.27,0-4.31-12.54-1.9-12.54-10.51,0-5.05,4.53-7.27,9.3-7.27a14.54,14.54,0,0,1,9.21,2.83l-2.91,4.16A10.59,10.59,0,0,0,123,14c-1.43,0-2.68.56-2.68,2,0,3.94,12.49,2.18,12.49,10.42,0,5.19-4.86,7.69-9.49,7.69a15,15,0,0,1-10.23-3.48Z"/><path class="cls-1" d="M137.08.69h12.77c6.44,0,12.27,2.83,12.27,10.09,0,8-5.37,10.84-12.22,10.84h-6.06V33.37h-6.76Zm11.75,15.56c3.62,0,6.07-1.25,6.07-5.47,0-3.65-2.78-4.95-6.11-4.95h-4.95V16.25Z"/><path class="cls-1" d="M165.82,10.14h5.6l.46,4.58A8.57,8.57,0,0,1,180,9.44v6.44a9.87,9.87,0,0,0-2-.19c-2.69,0-5.88,1.11-5.88,6.71v11h-6.3Z"/><path class="cls-1" d="M197,33.37a11.33,11.33,0,0,1-.69-3.28c-1,2.27-3.24,4-6.81,4-4.76,0-7.54-3.11-7.54-7.41,0-4.77,3.56-6.67,8.84-7.45l5.14-.79v-.88c0-2.73-1.48-3.33-3.57-3.33a9,9,0,0,0-6.76,3l-3-4.17c1.89-1.85,5.46-3.61,10.55-3.61,6.48,0,9.12,2.78,9.12,8.61v8.71c0,3.51.09,4.72.88,6.61Zm-1.06-10.92-4,.74c-2.78.51-3.93,1.48-3.93,3.29a3,3,0,0,0,3.14,3.15c2.64,0,4.82-2.18,4.82-5.65Z"/><path class="cls-1" d="M212.71,23.24c.46,4.3,2.64,6.15,5.65,6.15a5.37,5.37,0,0,0,5-3.1l4.68,2.64c-2.13,3.38-5.65,5.19-10.05,5.19-7.68,0-11.75-5.37-11.75-12.27S210.4,9.44,217.66,9.44c7,0,10.84,5.19,10.84,12.45,0,.79-.05,1.16-.05,1.35Zm0-3.61h9.4c0-2.92-1.39-5.56-4.59-5.56C214.65,14.07,213.08,16.15,212.71,19.63Z"/><path class="cls-1" d="M233.91,26.38a9.93,9.93,0,0,0,7,3.11c1.66,0,3.42-.65,3.42-2.27,0-4.31-12.54-1.9-12.54-10.51,0-5.05,4.54-7.27,9.3-7.27a14.57,14.57,0,0,1,9.22,2.83l-2.92,4.16A10.59,10.59,0,0,0,240.85,14c-1.43,0-2.68.56-2.68,2,0,3.94,12.5,2.18,12.5,10.42,0,5.19-4.86,7.69-9.49,7.69A15,15,0,0,1,231,30.64Z"/><path class="cls-1" d="M260,23.24c.46,4.3,2.64,6.15,5.65,6.15a5.39,5.39,0,0,0,5-3.1l4.68,2.64c-2.13,3.38-5.65,5.19-10,5.19-7.68,0-11.75-5.37-11.75-12.27s4.11-12.41,11.38-12.41c7,0,10.83,5.19,10.83,12.45,0,.79,0,1.16,0,1.35Zm0-3.61h9.4c0-2.92-1.39-5.56-4.59-5.56C261.91,14.07,260.34,16.15,260,19.63Z"/><path class="cls-1" d="M280,10.14h5.6l.51,3.75a8.53,8.53,0,0,1,7.45-4.45c5.05,0,7.46,3.24,7.46,9.4V33.37h-6.3v-13c0-3.84-1.34-5.42-3.84-5.42s-4.58,2-4.58,6.94V33.37H280Z"/><path class="cls-1" d="M307.69,26.38a9.93,9.93,0,0,0,7,3.11c1.66,0,3.42-.65,3.42-2.27,0-4.31-12.54-1.9-12.54-10.51,0-5.05,4.54-7.27,9.3-7.27a14.57,14.57,0,0,1,9.22,2.83l-2.92,4.16A10.59,10.59,0,0,0,314.63,14c-1.43,0-2.68.56-2.68,2,0,3.94,12.5,2.18,12.5,10.42,0,5.19-4.86,7.69-9.49,7.69a15,15,0,0,1-10.23-3.48Z"/><path class="cls-1" d="M236.23,48c-2.55,0-4.92.57-5.75,2.07-.14.31,0,.57.37.78a1.28,1.28,0,0,0,1.74-.63c.55-1,1.88-1.27,3.68-1.29A.47.47,0,0,0,236.23,48Z"/><path class="cls-1" d="M324.12,58.27l-64.8,0c-2.18,0-9.76,3.9-11,2.28-.33-.41,1.58-1.66,1.75-2.09.3-.72-.75-1.22-1.37-.7-1.17.95-8.47,4.67-7.56,2.21,1.22-2.24,4.6-3.28,8-3.89.66-.08,1.67-.58.74-1.21-1-.44-4.29.33-5.33.59-4.67,1.14-15.6,6.09-17.77,5.43-.74-.74,1.6-3.56,2.21-4.18,1.34-1.37-.11-1.42-1.3-1.18-5.29,1-15.18,6.46-17.71,5.87-.52-.2,1.24-3.51,1.74-4.3,2.38-1.67,13-10.6,11.07-12.38-3.26-2.89-11,10-12.39,12.14-1.34.89-7.1,4.58-8,3.91-.52-.87,1.93-3,3.82-3.69,1.5-.57,2.52-.1,3.72-.47.44-.13.83-.59.43-1-.91-.89-5.5.46-6.6.86-4.5,1.47-12.57,5.13-17.08,4.16-1.14-.25-1.92-.66-2-1.91a10.43,10.43,0,0,0,4.75-.77,3.92,3.92,0,0,0,2.37-2c.36-1.26-2.22-1.67-4.52-.93a7.12,7.12,0,0,0-3.73,2.74c-3.21,1-9.67,3.28-12.08,2.86-.53-.1,3.71-3.5,3.14-4.82-1-2.48-9.45,2.28-11.08,3,.48-.62,1.78-2.61.47-3-2-.59-6.31,2.28-8.07,3.3.71-1,3.31-3.13,2.06-3.75-2.44-.9-13.57,5.57-16.08,4a1.6,1.6,0,0,1-.6-1.56l2.11-3c3.2-1.12,11.33-9,10-10.11-3-2.38-8.85,6.15-10.92,9.61-3.26,1.83-13.07,6.76-15.78,4.25,1.18-.74,1.17-2.8-.43-2.73-.08-1.41-2.86-.56-3.37-.35-2.95.12-17,5.5-17.9,4.8-1.57-1,1.81-3.65,1.27-4.45s-3.68,1.74-6.6.78c.57-.26,1.66-.92,1.32-1.68-.54-1.19-3.63-.3-3.38,1.49A50.54,50.54,0,0,1,86.3,60.16c.72-.67,4-3.27,3.4-4.6-.12-.26-.46-.43-1-.51-3.77-.41-9.52,4.2-12.24,6.48a41.41,41.41,0,0,1,2.77-3.94c.26-.3,1.06-1.46.53-1.78-1.15-.7-6.68,1.93-8.14,2.4-23.68,0-47.51,0-71.2,0a.41.41,0,0,0,0,.82l71.29,0c.92,0,4.39-1.67,5.86-2-1.29,2.37-2.64,4.7-4.12,7-1,.89-12,9.67-7.51,10.82,3.28.83,7-8.11,8.4-10.27,3.06-2.59,9.56-8.06,13.62-8.24-.4,1.34-2.74,3.21-4.06,3.92a3.26,3.26,0,0,1-1.58.37c-.67,0-1.48.28-1.2,1.08s1.83.2,2.33.11c5.76-1,9.61-2.69,14.75-4.7,1.09,1.1,4.47.34,6,.11-.32,1-1.43,3-.58,3.87,1.3,1.5,6.82-1.26,16.12-4-1,.77-3.42,2.38-2.9,3.94.89,2.54,7.8.31,9.1-1.74,3.51,2.6,11.74-1.48,15.42-3.35-.44.58-1,1.28-1.41,1.86,0,0-3.41,0-1.51,2.09-4,4.77-6.95,12-6.38,14.18.16.61.79,1.47,2.33.62s2.84-2.93,3.92-5.31a23.91,23.91,0,0,0,2.34-9.24,4.13,4.13,0,0,0,1.08.4c3.84.75,10-3.08,14.4-3.82.12.87-3.86,3.7-3.67,4.59.09.36.92.53,1.27.41,2.4-.74,5.5-3.79,9.16-4.61a4.85,4.85,0,0,1-1,1.72c-.27.28-1.23,1.17-1,1.6a.66.66,0,0,0,.76.35c2.7-.38,9.47-5.08,11.38-4.38.37.87-3,2.57-3.35,4s2.47,1.35,3.39,1.2a37.77,37.77,0,0,0,5.39-1.28c.86-.27,1.73-.51,2.6-.75s1.66-.52,2.38-.67a4.15,4.15,0,0,0,.75,1.57c.86,1.09,2.51,1.17,3.86,1.25,4.19.1,10.84-2.44,14.91-4-.86.64-2.94,2.35-2.35,3.6,1.26,2.7,6.94-1.54,8.52-2.54-.55,1-1.57,2.92-.21,3.71,2.07,1.18,14.31-4.85,18.19-5.76-.5,1.11-2.81,4-1.65,5.1,1.57,1.52,15.38-4.85,18.19-5.44-1.17.47-4.43,2.84-4.43,4.26.21,3.09,6.11.24,7.81-.51a1.5,1.5,0,0,0-.05,1c.92,2.85,11.08-2.09,12.4-2h64.75C324.64,59.22,324.64,58.27,324.12,58.27Zm-103-12.44c.64.62-6.81,8.22-7.9,8.83C214.76,52.69,219.87,45.36,221.14,45.83ZM185.76,57c1.24-1,4.43-1.67,4.59-1.08s-4,2-5.38,1.81A3,3,0,0,1,185.76,57ZM151.91,45.49c-.25,1.83-5.23,6-7.08,7.29C146.46,50.67,149.43,46.16,151.91,45.49ZM66.6,73.12c-.52-.46,5.05-5.92,5.05-5.92C68,73,66.76,73.27,66.6,73.12ZM125,58.52c-1.46,1.93-7.22,3.15-6.94,1.7.15-1.74,5.71-4.09,7-3.8A1.77,1.77,0,0,0,125,58.52Zm8.36,15c-.57-.92,4.32-11.35,6-12.66C139.09,65.09,135,74.18,133.35,73.48Z"/></g></g></svg>